-=[HD DESI ROCKERS RELEASE]=-

Harry Potter and the Deathly Hallows Part 2 2011 TS 720p x264 MEGUIL

Cover 
http://img842.imageshack.us/img842/829/covergwb.jpg

IMDB 
http://www.imdb.com/title/tt1201607/

CAST

Ralph Fiennes	 ...	Lord Voldemort
Michael Gambon	 ...	Professor Albus Dumbledore
Alan Rickman	 ...	Professor Severus Snape
Daniel Radcliffe	 ...	Harry Potter
Rupert Grint	 ...	Ron Weasley
Emma Watson	 ...	Hermione Granger
Evanna Lynch	 ...	Luna Lovegood
Domhnall Gleeson	 ...	Bill Weasley
Clémence Poésy	 ...	Fleur Delacour
Warwick Davis	 ...	Griphook / Professor Filius Flitwick
John Hurt	 ...	Ollivander
Helena Bonham Carter	 ...	Bellatrix Lestrange
Graham Duff	 ...	Death Eater
Anthony Allgood	 ...	Gringotts Guard
Rusty Goffe	 ...	Aged Gringotts Goblin


PLOT

Release Title: Harry Potter and the Deathly Hallows Part 2 2011 TS 720p x264 MEGUIL

Storyline
The final chapter begins as Harry, Ron, and Hermione continue their quest of finding and destroying the Dark Lord's three remaining Horcruxes, the magical items responsible for his immortality. But as the mystical Deathly Hallows are uncovered, and Voldemort finds out about their mission, the biggest battle begins and life as they know it will never be the same again. Written by Jordan  

Plot Keywords: Immortality | Battle | Self Sacrifice | Mass Destruction | Giant  | See more »

Taglines: It All Ends

Genres: Action | Adventure | Drama | Fantasy | Mystery

Motion Picture Rating (MPAA)
Rated PG-13 for some sequences of intense action violence and frightening images See all certifications

Language: English

Release Date: 15 July 2011 (India)


INFO 

General
Format                           : MP4
Format profile                   : Base Media / Version 2
Codec ID                         : mp42
File size                        : 894 MiB
Duration                         : 1h 56mn
Overall bit rate                 : 1 070 Kbps
Encoded date                     : UTC 2011-07-18 20:10:13
Tagged date                      : UTC 2011-07-18 20:10:46
Writing application              : mp4creator 1.6.1d

Video
ID                               : 1
Format                           : AVC
Format/Info                      : Advanced Video Codec
Format profile                   : Baseline@L2.1
Format settings, CABAC           : No
Format settings, ReFrames        : 1 frame
Codec ID                         : avc1
Codec ID/Info                    : Advanced Video Coding
Duration                         : 1h 56mn
Bit rate mode                    : Variable
Average Bit rate                 : 878 Kbps
Maximum Bit rate                 : 22.0 Mbps
Width                            : 1 280 pixels
Height                           : 528 pixels
Display aspect ratio             : 2.40:1
Original display aspect ratio    : 2.35:1
Frame rate mode                  : Constant
Frame rate                       : 25.000 fps
Color space                      : YUV
Chroma subsampling               : 4:2:0
Bit depth                        : 8 bits
Scan type                        : Progressive
Bits/(Pixel*Frame)               : 0.052
Stream size                      : 734 MiB (82%)
Language                         : English
Encoded date                     : UTC 2011-07-18 20:10:13
Tagged date                      : UTC 2011-07-18 20:10:39

Audio
ID                               : 2
Format                           : AAC
Format/Info                      : Advanced Audio Codec
Format profile                   : LC
Codec ID                         : 40
Duration                         : 1h 56mn
Bit rate mode                    : Variable
Bit rate                         : 192 Kbps
Maximum bit rate                 : 230 Kbps
Channel(s)                       : 2 channels
Channel positions                : Front: L R
Sampling rate                    : 44.1 KHz
Compression mode                 : Lossy
Stream size                      : 158 MiB (18%)
Language                         : English
Encoded date                     : UTC 2011-07-18 20:10:41
Tagged date                      : UTC 2011-07-18 20:10:46


SCREENS 
 
http://img708.imageshack.us/img708/2207/vlcsnap2011071818h27m43.jpg
 
http://img854.imageshack.us/img854/3973/vlcsnap2011071818h29m13.jpg
 
http://img39.imageshack.us/img39/9185/vlcsnap2011071818h32m54.jpg
 
http://img824.imageshack.us/img824/7583/vlcsnap2011071818h34m01.jpg
 
http://img832.imageshack.us/img832/6066/vlcsnap2011071818h29m55.jpg
 
http://img198.imageshack.us/img198/8832/vlcsnap2011071818h30m13.jpg
 
http://img43.imageshack.us/img43/3042/vlcsnap2011071818h36m46.jpg
 
http://img835.imageshack.us/img835/7070/vlcsnap2011071818h39m11.jpg
